<?xml version="1.0" encoding="UTF-8"?><svg id="Calque_2" xmlns="http://www.w3.org/2000/svg" viewBox="0 0 968.45 883.89"><defs><style>.cls-1{fill:#fff;}.cls-2{fill:#e94638;}.cls-3{fill:#cbddf3;}.cls-4{stroke-width:14.81px;}.cls-4,.cls-5{stroke:#cbddf3;stroke-linejoin:round;}.cls-4,.cls-5,.cls-6{fill:none;}.cls-5{stroke-width:1.85px;}.cls-7,.cls-8{fill:#e2251e;}.cls-9{fill:#293273;}.cls-6{stroke-width:26px;}.cls-6,.cls-8{stroke:#e2251e;stroke-miterlimit:10;}.cls-10{fill:#e00914;}.cls-8{stroke-width:9px;}.cls-11{fill:#ee7265;}</style></defs><path class="cls-8" d="M71.85,459.32l5.79-5.66c1.76,1.91,3.59,3.75,5.49,5.52,4.92,4.6,10.31,8.73,16.01,12.28,11.85,7.39,24.93,12.25,38.86,14.46,13.93,2.21,27.87,1.62,41.42-1.74,6.52-1.62,12.92-3.88,19.02-6.73,6.05-2.83,11.86-6.25,17.27-10.18,5.41-3.93,10.46-8.4,15.02-13.28,4.6-4.92,8.73-10.31,12.28-16.01,7.39-11.86,12.25-24.93,14.46-38.86,2.21-13.93,1.62-27.87-1.74-41.42-1.62-6.52-3.88-12.92-6.73-19.02-2.83-6.05-6.25-11.86-10.18-17.27-3.57-4.91-7.58-9.52-11.93-13.74l10.63-10.4c26.81,26.12,40.94,64.41,34.65,104.18-10.31,65.07-71.41,109.46-136.48,99.16-22.6-3.58-42.71-13.29-58.89-27.16-3.44-2.95-6.7-6.08-9.76-9.38l4.85-4.74Z"/><path class="cls-8" d="M172.98,264.97c25.29,4.01,47.46,15.69,64.51,32.3l-10.63,10.4c-.44-.43-.89-.86-1.34-1.28-4.92-4.6-10.31-8.73-16.01-12.28-11.85-7.39-24.93-12.25-38.86-14.46-13.93-2.21-27.87-1.62-41.42,1.74-6.52,1.62-12.92,3.88-19.02,6.73-6.05,2.83-11.86,6.25-17.27,10.18-5.41,3.93-10.46,8.4-15.02,13.28-4.6,4.92-8.73,10.31-12.28,16.01-7.39,11.85-12.25,24.93-14.46,38.86-2.21,13.93-1.62,27.87,1.74,41.42,1.62,6.52,3.88,12.92,6.73,19.02,2.83,6.05,6.25,11.86,10.18,17.27,2.4,3.31,5.01,6.49,7.79,9.5l-5.79,5.66-4.85,4.74c-3.09-3.32-5.98-6.81-8.67-10.45-18.3-24.8-27.03-56.63-21.83-89.48,10.31-65.07,71.41-109.46,136.48-99.16"/><g><path class="cls-3" d="M237.98,385.77c0,46-37.29,83.29-83.29,83.29s-83.29-37.29-83.29-83.29,37.29-83.29,83.29-83.29,83.29,37.29,83.29,83.29"/><path class="cls-3" d="M121.82,314.76c.08-1.18,.2-2.08,.33-3.08,.13-.97,.28-1.93,.45-2.89,.33-1.91,.72-3.79,1.16-5.66,.89-3.73,2.03-7.39,3.4-10.95,1.35-3.57,3.08-7,5.01-10.26,1.94-3.26,4.33-6.25,6.89-8.97,.49-.52,1.32-.55,1.84-.06,.45,.42,.53,1.1,.23,1.61l-.04,.07c-1.8,3.04-3.35,6.16-4.44,9.46-1.08,3.3-1.94,6.65-2.44,10.07-.52,3.42-.81,6.85-.87,10.29-.03,1.71-.01,3.43,.07,5.12,.04,.85,.09,1.69,.16,2.52,.07,.8,.16,1.72,.26,2.34,.57,3.3-1.65,6.43-4.95,7-3.3,.57-6.43-1.65-7-4.95-.08-.47-.11-.94-.08-1.39l.02-.3Z"/><path class="cls-3" d="M117.09,321.98c-.4-.49-1.03-1.16-1.58-1.74-.58-.6-1.17-1.2-1.79-1.79-1.22-1.18-2.5-2.33-3.8-3.44-2.62-2.22-5.4-4.27-8.3-6.14-2.9-1.89-5.98-3.45-9.18-4.82-3.2-1.36-6.57-2.26-10.04-2.91h-.07c-.71-.15-1.17-.83-1.04-1.53,.11-.61,.64-1.04,1.23-1.06,3.73-.12,7.55,.05,11.28,.75,3.72,.71,7.44,1.67,11.01,3.01,3.58,1.32,7.08,2.88,10.47,4.67,1.69,.9,3.37,1.85,5.02,2.86,.83,.5,1.65,1.03,2.46,1.57,.84,.56,1.59,1.07,2.53,1.79l.21,.16c2.65,2.04,3.15,5.85,1.11,8.5-2.04,2.65-5.85,3.15-8.5,1.11-.38-.29-.73-.64-1.02-1"/><path class="cls-3" d="M258.79,438.03l-10.97,1.26c-1.55,.18-2.97-.75-3.49-2.15l-.43-1.19-18.89-51.76c-1.99-5.46,.82-11.49,6.27-13.48,5.46-1.99,11.49,.82,13.48,6.27,.26,.72,.45,1.51,.55,2.24l7.14,54.64-3.92-3.34,10.62,3.02c1.22,.35,1.93,1.62,1.58,2.84-.26,.92-1.05,1.55-1.95,1.66"/><path class="cls-5" d="M257.62,436.77l-10.18,1.21c-1.44,.17-2.76-.72-3.24-2.07l-.4-1.15-17.52-49.79c-1.85-5.25,.76-11.05,5.82-12.97,5.06-1.92,10.66,.79,12.51,6.04,.24,.69,.41,1.45,.51,2.15l6.62,52.56-3.64-3.21,9.86,2.9c1.13,.34,1.79,1.56,1.47,2.74-.24,.89-.98,1.5-1.81,1.59Z"/><path class="cls-3" d="M254.57,343.19l-5.71,9.45c-.81,1.34-2.41,1.9-3.83,1.44l-1.21-.38-52.51-16.69c-5.53-1.76-8.59-7.67-6.84-13.21,1.76-5.53,7.67-8.6,13.2-6.84,.73,.23,1.47,.57,2.11,.94l47.61,27.74-5.04,1.06,8.88-6.57c1.02-.75,2.46-.54,3.22,.48,.57,.77,.58,1.79,.12,2.56"/><path class="cls-5" d="M253.27,342.65l-5.5,8.8c-.78,1.24-2.32,1.76-3.69,1.34l-1.16-.36-50.57-15.52c-5.33-1.64-8.28-7.13-6.58-12.28,1.69-5.15,7.39-8,12.72-6.36,.7,.22,1.41,.53,2.03,.87l45.84,25.81-4.85,.99,8.55-6.11c.98-.7,2.37-.5,3.1,.45,.55,.72,.56,1.66,.11,2.38Z"/><path class="cls-3" d="M168.54,288.55l-5.71,9.45,.75-4.78,15.43,19.37c3.71,4.66,2.94,11.44-1.72,15.14-4.66,3.71-11.44,2.94-15.15-1.72-1.14-1.43-1.86-3.11-2.17-4.79l-4.41-24.37-.36-1.98c-.2-1.11,.27-2.18,1.12-2.81l8.88-6.56c1.02-.76,2.46-.54,3.22,.48,.57,.77,.58,1.78,.12,2.56"/><path class="cls-4" d="M168.31,297.45l-1.12,5.03,.15-2.55,3.03,10.31c.73,2.48,.58,6.09-.34,8.06-.91,1.97-2.24,1.56-2.97-.92-.23-.76-.37-1.66-.43-2.55l-.87-12.97-.07-1.05c-.04-.59,.05-1.16,.22-1.49l1.74-3.49c.2-.4,.48-.29,.63,.26,.11,.41,.11,.95,.02,1.36Z"/><path class="cls-3" d="M74.67,326.46l10.8-2.34c1.1-.24,2.19,.19,2.84,1.01l1.25,1.58,15.39,19.4c3.7,4.66,2.91,11.44-1.75,15.14-4.66,3.7-11.44,2.92-15.14-1.75-1.14-1.44-1.86-3.12-2.16-4.8l-4.36-24.38,4.09,2.59-10.87-1.95c-1.25-.22-2.08-1.42-1.86-2.67,.17-.94,.89-1.65,1.78-1.84"/><path class="cls-4" d="M84.09,335.71l4.19-1.09c.43-.11,.85,.09,1.1,.47l.48,.74,5.98,9.07c1.44,2.18,1.13,5.35-.68,7.08-1.81,1.73-4.44,1.36-5.88-.82-.44-.67-.72-1.46-.84-2.24l-1.69-11.39,1.59,1.21-4.22-.91c-.49-.11-.81-.66-.72-1.25,.07-.44,.35-.77,.69-.86Z"/><path class="cls-3" d="M123.79,494.76l4.75-9.97-.08,5.15-36.32-41.44c-3.83-4.37-3.39-11.01,.98-14.84,4.37-3.83,11.01-3.39,14.84,.98,.51,.58,.96,1.25,1.32,1.89l26.4,48.37,.61,1.11c.75,1.37,.42,3.04-.69,4.04l-8.19,7.41c-.94,.85-2.4,.78-3.25-.16-.65-.71-.76-1.72-.37-2.54"/><path class="cls-5" d="M123.2,493.58l4.48-9.58-.07,4.95-34.29-39.81c-3.61-4.19-3.2-10.58,.92-14.25,4.12-3.68,10.39-3.26,14.01,.94,.48,.56,.91,1.2,1.25,1.82l24.93,46.47,.57,1.07c.71,1.32,.4,2.92-.65,3.88l-7.73,7.12c-.89,.82-2.27,.75-3.07-.15-.61-.69-.72-1.65-.35-2.44Z"/><path class="cls-3" d="M58.9,427.15l10.8-2.33-4.12,3.09,10.6-54.07c1.12-5.7,6.64-9.41,12.34-8.29,5.7,1.12,9.41,6.64,8.3,12.34-.15,.75-.4,1.52-.69,2.2l-22.15,50.46-.51,1.16c-.63,1.43-2.14,2.19-3.62,1.93l-10.87-1.96c-1.25-.22-2.08-1.42-1.86-2.67,.17-.94,.9-1.65,1.78-1.84"/><path class="cls-5" d="M60.1,426.09l10.08-2.25-3.85,2.97,9.91-51.99c1.04-5.48,6.2-9.05,11.53-7.98,5.32,1.08,8.79,6.39,7.75,11.87-.14,.72-.37,1.46-.64,2.12l-20.68,48.51-.47,1.11c-.59,1.38-2.01,2.11-3.38,1.85l-10.15-1.88c-1.17-.22-1.95-1.37-1.74-2.57,.16-.91,.84-1.59,1.66-1.77Z"/><path class="cls-2" d="M258.88,436.95l-10.89,.22c-.9,.02-1.67-.57-1.92-1.39l-.1-.34-16.05-52.45c-.88-2.86,.74-5.89,3.59-6.76,2.86-.88,5.88,.73,6.76,3.59,.06,.2,.11,.4,.15,.6l9.98,53.94-2.03-1.73,10.71,1.99c.64,.12,1.06,.73,.94,1.37-.1,.56-.59,.95-1.13,.96"/><path class="cls-2" d="M239.45,382.01c-.59-3.06-4.28-5.15-8.21-4.63l-36.74,4.86c-3.93,.52-6.54,4.13-5.79,8.02l.53,2.8c.74,3.89,4.5,6.29,8.34,5.32l35.94-9.04c3.84-.97,6.51-4.27,5.92-7.33"/><path class="cls-2" d="M253.77,342.46l-6.48,8.76c-.53,.72-1.47,.98-2.28,.67l-.33-.13-51.33-19.35c-2.8-1.06-4.21-4.18-3.15-6.98,1.05-2.8,4.18-4.21,6.98-3.15,.19,.07,.38,.16,.56,.25l48.79,25.07-2.61,.55,8.12-7.26c.48-.43,1.22-.39,1.66,.09,.38,.42,.39,1.04,.07,1.48"/><path class="cls-2" d="M167.73,287.82l-6.48,8.76,.39-2.48,12.77,20.58c1.59,2.56,.8,5.92-1.76,7.51-2.56,1.59-5.92,.8-7.5-1.76-.25-.4-.45-.85-.58-1.28l-7.07-23.16-.16-.51c-.22-.73,.02-1.49,.55-1.96l8.12-7.26c.48-.43,1.22-.39,1.66,.09,.38,.42,.39,1.04,.07,1.48"/><path class="cls-2" d="M74.69,327.55l10.81-1.3c.75-.09,1.46,.28,1.83,.88l.28,.46,12.73,20.6c1.58,2.56,.79,5.92-1.77,7.5-2.56,1.58-5.92,.79-7.5-1.77-.25-.4-.45-.85-.58-1.28l-7.02-23.18,2.12,1.34-10.85-.92c-.65-.05-1.13-.62-1.07-1.27,.05-.57,.49-1,1.03-1.07"/><path class="cls-2" d="M198.41,324.26c-2.78-1.41-6.69,.24-8.68,3.67l-18.61,32.05c-1.99,3.43-.73,7.7,2.81,9.49l2.54,1.29c3.54,1.79,7.73,.28,9.31-3.35l14.81-33.97c1.58-3.64,.6-7.76-2.18-9.17"/><path class="cls-2" d="M124.67,495.41l5.58-9.35-.04,2.67-33.93-43.11c-1.85-2.35-1.44-5.75,.91-7.6,2.35-1.85,5.75-1.44,7.6,.91,.13,.16,.25,.33,.35,.51l28.79,46.69,.18,.3c.47,.77,.35,1.73-.22,2.37l-7.36,8.03c-.44,.48-1.18,.51-1.66,.07-.42-.38-.5-1-.22-1.47"/><path class="cls-2" d="M98.11,445.94c-1.91-2.46-1.04-6.61,1.95-9.22l27.91-24.39c2.98-2.61,7.42-2.18,9.85,.95l1.75,2.25c2.43,3.13,1.75,7.53-1.51,9.78l-30.52,21.03c-3.26,2.25-7.5,2.07-9.42-.39"/><path class="cls-2" d="M58.92,428.24l10.81-1.3-2.13,1.6,13.39-53.2c.73-2.9,3.67-4.66,6.57-3.93,2.9,.73,4.66,3.67,3.93,6.57-.05,.2-.11,.4-.18,.59l-19.36,51.33-.12,.33c-.32,.84-1.15,1.34-2.01,1.27l-10.85-.92c-.65-.05-1.13-.62-1.07-1.27,.05-.57,.49-1,1.03-1.07"/><path class="cls-2" d="M81.84,376.99c.78-3.02,4.6-4.86,8.49-4.1l36.36,7.19c3.89,.77,6.26,4.54,5.27,8.37l-.71,2.76c-.99,3.84-4.89,5.99-8.66,4.78l-35.3-11.31c-3.77-1.21-6.22-4.67-5.45-7.69"/><path class="cls-2" d="M160.14,325.63c3.09,6.83,.06,14.87-6.77,17.96l-27.68,12.65c-6.83,3.09-15.27,.06-17.68-6.77h0c-3.6-6.83-.34-14.87,6.49-17.96l27.82-12.65c6.83-3.09,14.8-.06,17.89,6.77h-.07Z"/><path class="cls-2" d="M147.31,317.32c1.98,4.39,.04,9.56-4.36,11.54l-19.59,8.86c-4.39,1.99-9.56,.04-11.54-4.35l-.11-.23c-1.99-4.39-.04-9.56,4.35-11.54l19.59-8.86c4.39-1.99,9.56-.04,11.55,4.35l.11,.23Z"/><path class="cls-1" d="M120.51,326.92c0,1.61-1.3,2.91-2.91,2.91s-2.92-1.3-2.92-2.91,1.31-2.91,2.92-2.91,2.91,1.3,2.91,2.91"/><path class="cls-10" d="M119.96,325.72c0,1.31-1.06,2.37-2.37,2.37s-2.37-1.06-2.37-2.37,1.06-2.37,2.37-2.37,2.37,1.06,2.37,2.37"/><path class="cls-1" d="M118.59,325.72c0,.55-.45,1-1,1s-1-.45-1-1,.45-1,1-1,1,.45,1,1"/><path class="cls-1" d="M136.79,319.67c1.2,1.08,3.04,.98,4.12-.22,1.08-1.2,.98-3.04-.22-4.12-1.2-1.08-3.04-.98-4.12,.22-1.08,1.2-.98,3.04,.22,4.12"/><path class="cls-10" d="M136.26,318.46c.97,.88,2.47,.8,3.35-.18,.87-.97,.8-2.47-.18-3.35-.97-.88-2.47-.8-3.35,.18s-.8,2.47,.18,3.35"/><path class="cls-1" d="M137.18,317.44c.41,.37,1.04,.34,1.41-.07,.37-.41,.34-1.04-.07-1.41-.41-.37-1.04-.34-1.41,.08-.37,.41-.34,1.04,.07,1.41"/><path class="cls-2" d="M217.12,369.14c14.23,31.46,.26,68.5-31.2,82.73-31.46,14.23-68.5,.27-82.73-31.19-14.23-31.46-.27-68.5,31.2-82.73,31.46-14.23,68.5-.26,82.73,31.2"/><path class="cls-10" d="M207.1,373.68c11.73,25.93,.22,56.45-25.71,68.17-25.93,11.73-56.45,.22-68.17-25.71-11.73-25.93-.22-56.45,25.71-68.18,25.92-11.73,56.45-.22,68.17,25.71"/><path class="cls-2" d="M162.53,349.89c7.71-.5,15.67,1.47,22.58,5.4,.88,.47,1.72,1,2.55,1.56l1.25,.83,1.2,.9c.79,.61,1.58,1.23,2.31,1.92,.74,.68,1.51,1.33,2.18,2.07,2.83,2.84,5.28,6.1,7.22,9.62,3.89,7.03,5.88,15.19,5.4,23.2-.46,7.98-3.18,15.79-7.94,21.9l-3.13-1.79c2.5-6.66,3.76-13.48,3.47-20.19-.25-6.71-2.04-13.24-5.15-19.12-1.57-2.93-3.49-5.66-5.68-8.17-.52-.65-1.14-1.22-1.72-1.82-.57-.61-1.2-1.16-1.83-1.71l-.93-.85-.99-.79c-.65-.54-1.31-1.05-2.02-1.52-5.52-3.91-12-6.55-18.97-7.85l.19-3.6Z"/><path class="cls-11" d="M187.5,352.62c-1.85-.21-3.69-.48-5.53-.77l-1.35-.2c-.4-.05-.83-.06-1.25-.04-.85,.04-1.71,.17-2.53,.37-.84,.22-1.56,.45-2.26,.87l-2.44,1.32c-1.63,.88-3.28,1.7-4.92,2.56-6.57,3.4-13.25,6.57-19.98,9.62-6.73,3.04-13.52,5.96-20.41,8.66-1.73,.67-3.44,1.37-5.17,2.01l-2.6,.96c-.78,.25-1.43,.64-2.15,1.12-.7,.48-1.36,1.03-1.95,1.65-.29,.31-.56,.63-.79,.97l-.74,1.15c-1,1.56-2.01,3.12-3.08,4.66,.59-1.77,1.23-3.52,1.89-5.25,.17-.45,.3-.85,.51-1.32,.22-.47,.47-.92,.74-1.34,.55-.84,1.19-1.61,1.91-2.31,.71-.69,1.59-1.37,2.52-1.83l2.44-1.32c1.63-.88,3.29-1.7,4.93-2.56,6.57-3.39,13.25-6.57,19.98-9.62,6.74-3.04,13.53-5.95,20.42-8.65,1.72-.67,3.43-1.37,5.17-2.01l2.6-.97c.96-.39,2.05-.61,3.03-.69,1.01-.07,2-.04,3,.1,.5,.07,.99,.17,1.49,.33,.5,.15,.89,.32,1.34,.48,1.74,.66,3.47,1.32,5.19,2.05"/><path class="cls-11" d="M200.34,364.16c-2.15-.29-4.28-.64-6.41-1l-1.6-.27c-.54-.11-.95-.14-1.46-.15-.98,0-1.99,.14-2.94,.37-.47,.12-.94,.25-1.36,.43-.22,.09-.4,.18-.61,.29l-.71,.37-2.86,1.51c-1.91,1.01-3.84,1.95-5.76,2.94-3.83,1.97-7.73,3.79-11.6,5.69l-11.71,5.44-11.82,5.21c-3.98,1.65-7.92,3.39-11.93,4.96-2,.79-3.99,1.62-6,2.39l-3.02,1.15-.76,.29c-.22,.08-.4,.16-.62,.26-.41,.2-.82,.46-1.22,.74-.81,.56-1.58,1.22-2.22,1.96-.33,.39-.58,.72-.86,1.19l-.85,1.38c-1.14,1.84-2.28,3.67-3.49,5.47,.72-2.04,1.51-4.06,2.3-6.07l.6-1.51c.19-.5,.49-1.09,.8-1.57,.63-1,1.38-1.88,2.24-2.69,.43-.4,.9-.77,1.41-1.12,.25-.17,.55-.34,.82-.48l.71-.38,2.86-1.51c1.91-1.01,3.84-1.95,5.76-2.93,3.83-1.98,7.73-3.79,11.6-5.69l11.71-5.44,11.82-5.2c3.97-1.66,7.92-3.38,11.93-4.96,2-.79,3.99-1.62,6.01-2.39l3.02-1.15,.75-.29c.28-.11,.61-.22,.9-.3,.6-.16,1.19-.27,1.78-.32,1.17-.11,2.33-.09,3.49,.1,.56,.08,1.21,.25,1.71,.44l1.52,.54c2.03,.73,4.06,1.47,6.08,2.28"/><path class="cls-11" d="M212.45,375.8c-2.4-.23-4.81-.48-7.2-.78l-1.79-.22c-.59-.08-1.08-.1-1.66-.07-1.11,.05-2.24,.26-3.29,.58-.52,.17-1.03,.35-1.45,.58l-1.6,.83-3.2,1.66c-2.14,1.11-4.3,2.16-6.45,3.25-4.29,2.18-8.65,4.21-12.98,6.31l-13.09,6.06-13.19,5.83c-4.44,1.86-8.83,3.8-13.31,5.58-2.23,.9-4.45,1.83-6.69,2.7l-3.36,1.31-1.68,.65c-.45,.17-.93,.43-1.39,.71-.93,.57-1.83,1.29-2.61,2.09-.4,.41-.71,.79-1.04,1.29l-1.02,1.49c-1.37,1.99-2.74,3.97-4.17,5.92,.97-2.22,1.99-4.4,3.02-6.58l.78-1.63c.25-.55,.63-1.17,1-1.68,.77-1.05,1.65-1.97,2.66-2.81,.51-.42,1.06-.79,1.7-1.13l1.61-.84,3.21-1.66c2.14-1.11,4.3-2.16,6.45-3.25,4.29-2.19,8.65-4.2,12.98-6.31l13.09-6.06,13.19-5.82c4.43-1.86,8.83-3.8,13.31-5.58,2.23-.9,4.45-1.83,6.69-2.7l3.37-1.31,1.69-.66c.67-.26,1.32-.42,1.97-.53,1.3-.21,2.57-.26,3.87-.15,.63,.05,1.34,.18,1.92,.35l1.74,.49c2.32,.66,4.63,1.35,6.94,2.08"/><path class="cls-11" d="M211.23,408.7c-1.79-.24-3.57-.54-5.34-.86l-1.31-.23c-.39-.06-.79-.08-1.2-.07-.82,.01-1.65,.12-2.44,.31-.79,.18-1.57,.43-2.17,.77l-2.37,1.28c-1.57,.86-3.18,1.66-4.77,2.49-6.36,3.3-12.83,6.38-19.34,9.33-6.52,2.95-13.1,5.77-19.78,8.37-1.67,.64-3.33,1.32-5.01,1.94l-2.52,.93c-.65,.23-1.35,.65-2.01,1.12-.66,.47-1.3,1.03-1.85,1.63-.28,.3-.52,.62-.74,.95l-.69,1.13c-.94,1.54-1.88,3.07-2.89,4.58,.52-1.73,1.09-3.44,1.68-5.14,.15-.43,.27-.83,.46-1.29,.19-.47,.42-.91,.68-1.33,.51-.83,1.11-1.59,1.79-2.3,.69-.7,1.46-1.34,2.43-1.86l2.37-1.29c1.57-.86,3.18-1.66,4.77-2.49,6.37-3.3,12.83-6.38,19.35-9.33,6.52-2.94,13.1-5.76,19.78-8.36,1.67-.64,3.33-1.32,5.01-1.94l2.53-.93c1.03-.38,2.02-.54,3-.59,.98-.04,1.95,0,2.91,.17,.48,.08,.96,.2,1.44,.37,.47,.16,.85,.34,1.27,.51,1.67,.68,3.33,1.38,4.97,2.13"/><path class="cls-11" d="M205.02,427.69c-1.23-.34-2.44-.74-3.63-1.15l-.9-.31c-.28-.1-.51-.16-.79-.2-.54-.09-1.1-.11-1.65-.08-1.09,.04-2.22,.28-2.99,.74-.99,.58-2.16,1.22-3.24,1.81-4.41,2.38-8.9,4.59-13.46,6.66-4.56,2.07-9.18,3.98-13.89,5.72-1.16,.42-2.41,.88-3.5,1.24-.84,.27-1.78,.96-2.52,1.75-.39,.39-.74,.82-1.03,1.29-.15,.24-.26,.46-.37,.72l-.36,.88c-.49,1.17-.98,2.33-1.54,3.48,.04-1.28,.14-2.54,.25-3.8l.09-.94c.04-.34,.12-.72,.22-1.06,.2-.69,.49-1.34,.84-1.96,.74-1.21,1.64-2.32,3.04-3.18,1.18-.69,2.21-1.25,3.33-1.86,4.42-2.38,8.91-4.6,13.47-6.66,4.56-2.06,9.19-3.97,13.89-5.71,1.2-.44,2.31-.85,3.6-1.28,1.57-.47,3-.43,4.39-.18,.69,.15,1.37,.36,2.02,.66,.32,.15,.65,.34,.94,.53l.77,.56c1.02,.75,2.04,1.51,3.02,2.32"/><path class="cls-11" d="M167.38,337.26c-3.02,4.25-6.91,7.83-11.05,10.97-2.08,1.57-4.25,3.02-6.48,4.37-1.12,.68-2.26,1.3-3.44,1.93-1.21,.58-2.37,1.1-3.55,1.65l-3.59,1.58c-1.25,.47-2.47,.91-3.72,1.31-2.49,.79-5.01,1.47-7.56,1.99-5.1,1.04-10.35,1.59-15.54,1.05,4.99-1.47,9.79-2.97,14.53-4.69,2.37-.85,4.72-1.72,7.05-2.64,1.16-.46,2.33-.92,3.45-1.41l3.41-1.57,3.42-1.52c1.1-.51,2.22-1.1,3.33-1.66,2.22-1.14,4.44-2.33,6.64-3.55,4.42-2.42,8.72-5.03,13.11-7.82"/><path class="cls-2" d="M134.38,313.37c1.76,3.89-.94,8.9-6.03,11.21-5.09,2.3-10.64,1.02-12.4-2.87-1.76-3.89,.94-8.9,6.04-11.21,5.09-2.3,10.64-1.02,12.4,2.87"/><path class="cls-2" d="M92.59,353.54c-.93-2.05,2.14-5.74,6.81-8.22l13.22-7c4.67-2.47,9.64-1.95,11.05,1.16,1.41,3.11-1.48,7.19-6.43,9.07l-13.99,5.3c-4.94,1.87-9.74,1.73-10.67-.31"/><path class="cls-2" d="M173.71,316.85c-.93-2.05-5.73-2.19-10.67-.31l-13.98,5.3c-4.94,1.87-7.83,5.96-6.43,9.07,1.41,3.12,6.38,3.64,11.05,1.16l13.22-7c4.67-2.47,7.73-6.17,6.81-8.22"/><path class="cls-2" d="M126.02,314.64c.08-3.8,.49-7.41,1.09-11.05,.6-3.62,1.44-7.21,2.52-10.72,1.05-3.52,2.48-6.92,4.11-10.19,1.65-3.28,3.73-6.31,6.03-9.14,.13-.17,.38-.19,.54-.06,.16,.13,.19,.36,.07,.53v.02c-2.08,2.93-3.92,6-5.31,9.29-1.38,3.29-2.54,6.66-3.34,10.14-.82,3.47-1.4,6.98-1.76,10.52-.34,3.52-.5,7.14-.35,10.56v.07c.05,1-.72,1.84-1.72,1.88-.99,.04-1.84-.73-1.88-1.72,0-.04,0-.08,0-.12"/><path class="cls-2" d="M119.96,318.91c-2.48-2.37-5.3-4.64-8.17-6.71-2.89-2.07-5.92-3.95-9.06-5.63-3.13-1.69-6.44-3.05-9.82-4.18-3.39-1.13-6.91-1.78-10.47-2.16h-.02c-.21-.02-.37-.22-.35-.43,.02-.21,.2-.36,.4-.35,3.64,.15,7.3,.58,10.85,1.51,3.54,.94,7.03,2.11,10.37,3.64,3.34,1.51,6.59,3.25,9.71,5.19,3.13,1.96,6.11,4.04,9.02,6.48,.76,.64,.86,1.78,.22,2.54-.64,.76-1.78,.86-2.54,.22-.03-.02-.06-.05-.08-.07l-.05-.05Z"/></g><line class="cls-6" x1="66.44" y1="459.81" x2="227.85" y2="307.37"/><g><path class="cls-9" d="M317.86,357.64c4.88,6.47,12.14,10.69,18.88,10.69,5.41,0,8.71-2.38,8.71-7.66,0-14.12-40.66-9.5-40.66-41.19,0-15.44,12.94-28.25,31.68-28.25,14.65,0,26,6.34,34.58,15.84l-17.03,15.58c-5.41-6.34-11.22-10.96-17.42-10.96-4.75,0-8.05,2.9-8.05,6.73,0,13.73,40.66,9.11,40.66,41.45-.26,18.48-14.78,29.04-32.21,29.04s-27.72-5.94-36.17-15.58l17.03-15.71Z"/><path class="cls-9" d="M378.71,293.88h77.35v21.25h-26.93v71.15h-23.5v-71.15h-26.93v-21.25Z"/><path class="cls-9" d="M559.69,340.08c0,26.4-20.06,48.84-49.37,48.84s-49.5-22.44-49.5-48.84,20.06-48.84,49.5-48.84,49.37,22.44,49.37,48.84Zm-24.16,0c0-15.58-10.56-26.8-25.21-26.8s-25.34,11.35-25.34,26.8,10.56,26.8,25.34,26.8,25.21-11.35,25.21-26.8Z"/><path class="cls-9" d="M577.37,293.88h33c21.65,0,34.98,10.69,34.98,28.78s-13.33,28.65-34.98,28.65h-9.5v34.98h-23.5v-92.4Zm23.5,19.4v18.61h10.82c5.94,0,9.37-3.83,9.37-9.5,0-5.28-3.43-9.11-9.37-9.11h-10.82Z"/></g><g><path class="cls-7" d="M302.73,421.01h13.04v2.3c2.79-2.54,6.4-3.94,11.48-3.94,13.2,0,20.83,10.25,20.83,22.3s-7.63,22.3-20.83,22.3c-5.08,0-8.69-1.39-11.48-3.94v22.47h-13.04v-61.5Zm13.04,15.5v10.33c2.46,3.2,5.49,4.92,9.59,4.92,5.74,0,9.27-4.02,9.27-10.09s-3.53-10.09-9.27-10.09c-4.18,0-7.3,1.8-9.59,4.92Z"/><path class="cls-7" d="M382.35,421.01h13.12v22.63c0,12.38-7.38,20.34-20.09,20.34s-20.01-7.95-20.01-20.34v-22.63h13.12v23.37c0,4.35,2.13,7.38,6.97,7.38s6.89-3.03,6.89-7.38v-23.37Z"/><path class="cls-7" d="M405.31,421.01h13.04v2.3c2.71-2.3,6.15-3.94,10.99-3.94,8.77,0,15.99,6.15,15.99,18.7v24.27h-13.12v-23.7c0-4.18-2.21-7.05-6.4-7.05-4.59,0-6.64,3.61-7.46,5v25.75h-13.04v-41.33Z"/><path class="cls-7" d="M453.36,450.69c0-6.31,4.84-11.15,13.86-12.63l11.64-1.97c-.08-3.12-2.79-5.49-6.64-5.49-3.44,0-5.99,1.64-7.87,4.35l-9.51-7.22c3.77-5.25,10.09-8.36,17.79-8.36,13.12,0,19.19,7.87,19.19,16.89v26.08h-12.96v-3.12c-2.3,2.54-6.97,4.35-11.32,4.35-8.36,0-14.19-4.84-14.19-12.87Zm17.06,2.79c4.18,0,6.81-1.97,8.45-4.43v-4.1l-8.12,1.39c-3.36,.57-4.51,1.8-4.51,3.69,0,2.13,1.64,3.44,4.18,3.44Z"/><path class="cls-7" d="M500.43,408.21c0-4.43,3.77-8.2,8.28-8.2s8.12,3.77,8.12,8.2-3.77,8.28-8.12,8.28-8.28-3.85-8.28-8.28Zm1.64,12.79h13.04v41.33h-13.04v-41.33Z"/><path class="cls-7" d="M530.44,448.31c2.21,2.87,5,5.33,8.69,5.33,2.38,0,3.53-1.23,3.53-2.87,0-5.66-19.11-3.36-19.11-17.88,0-7.87,6.64-13.53,15.74-13.53,6.56,0,12.79,3.2,15.91,7.22l-8.53,7.63c-1.97-2.3-4.43-4.51-7.38-4.51-2.3,0-3.36,1.15-3.36,2.54,0,5.33,19.11,3.2,19.11,17.63-.16,9.35-7.79,14.1-15.74,14.1s-13.2-3.12-17.38-7.87l8.53-7.79Z"/><path class="cls-7" d="M583.99,463.97c-15.17,0-23.21-10.25-23.21-22.3s7.46-22.3,21.48-22.3c11.73,0,19.43,7.79,19.43,19.02,0,2.79-.41,5.41-.82,6.89h-26.73c1.23,5.58,4.84,7.05,9.76,7.05,3.94,0,7.38-1.56,9.27-3.94l9.18,7.3c-3.94,5.17-10.41,8.28-18.37,8.28Zm-9.76-27.88h14.84c-.16-2.79-2.3-6.23-7.13-6.23-4.18,0-6.72,2.05-7.71,6.23Z"/><path class="cls-7" d="M615.23,448.31c2.21,2.87,5,5.33,8.69,5.33,2.38,0,3.53-1.23,3.53-2.87,0-5.66-19.11-3.36-19.11-17.88,0-7.87,6.64-13.53,15.74-13.53,6.56,0,12.79,3.2,15.91,7.22l-8.53,7.63c-1.97-2.3-4.43-4.51-7.38-4.51-2.3,0-3.36,1.15-3.36,2.54,0,5.33,19.11,3.2,19.11,17.63-.16,9.35-7.79,14.1-15.74,14.1s-13.2-3.12-17.38-7.87l8.53-7.79Z"/></g></svg>