<?xml version="1.0" encoding="UTF-8"?>
<svg xmlns="http://www.w3.org/2000/svg" xmlns:xlink="http://www.w3.org/1999/xlink" width="200px" height="80px" viewBox="0 0 200 80" version="1.1">
<g id="surface1">
<path style="fill-rule:nonzero;fill:rgb(88.627451%,14.509804%,11.764706%);fill-opacity:1;stroke-width:9;stroke-linecap:butt;stroke-linejoin:miter;stroke:rgb(88.627451%,14.509804%,11.764706%);stroke-opacity:1;stroke-miterlimit:10;" d="M 41.330266 200.342529 L 47.123775 194.679357 C 48.88122 196.591282 50.711388 198.430603 52.614277 200.197319 C 57.535123 204.795622 62.916542 208.934093 68.625209 212.479626 C 80.466755 219.873212 93.544572 224.725631 107.482931 226.940077 C 121.40917 229.154522 135.34753 228.561583 148.898039 225.197562 C 155.418767 223.576056 161.818292 221.325308 167.914809 218.46952 C 173.974966 215.637934 179.780595 212.22551 185.186255 208.292751 C 190.604034 204.359993 195.646084 199.8948 200.215442 195.006078 C 204.809041 190.093155 208.942067 184.696201 212.493319 178.996726 C 219.874589 167.137947 224.734834 154.069089 226.952852 140.141073 C 229.158748 126.213058 228.564853 112.272942 225.207527 98.720052 C 223.595525 92.197723 221.329027 85.796403 218.480753 79.697602 C 215.6446 73.647204 212.226672 67.838823 208.299691 62.429767 C 204.724198 57.516845 200.724495 52.906442 196.373303 48.695365 L 207.002817 38.288681 C 233.812948 64.414298 247.945233 102.701213 241.654791 142.464426 C 231.340405 207.542502 170.241909 251.928218 105.167952 241.630442 C 82.575689 238.048606 62.45597 228.343769 46.275353 214.464157 C 42.845305 211.523664 39.584941 208.389558 36.518502 205.086041 L 41.366627 200.35463 Z M 41.330266 200.342529 " transform="matrix(0.32229,0,0,0.322809,0,0.0345863)"/>
<path style="fill-rule:nonzero;fill:rgb(88.627451%,14.509804%,11.764706%);fill-opacity:1;stroke-width:9;stroke-linecap:butt;stroke-linejoin:miter;stroke:rgb(88.627451%,14.509804%,11.764706%);stroke-opacity:1;stroke-miterlimit:10;" d="M 142.462153 5.991659 C 167.745125 9.997022 189.925297 21.674289 206.966456 38.288681 L 196.336942 48.695365 C 195.900611 48.259736 195.452159 47.824108 195.003708 47.412681 C 190.082861 42.814378 184.689322 38.675907 178.992775 35.130374 C 167.139109 27.736788 154.061292 22.884369 140.135053 20.669923 C 126.196694 18.455478 112.258334 19.048417 98.707825 22.412438 C 92.187097 24.033944 85.787572 26.284692 79.691055 29.14048 C 73.643019 31.972066 67.825269 35.38449 62.419609 39.317249 C 57.01395 43.250007 51.95978 47.7152 47.402542 52.603922 C 42.796823 57.516845 38.675917 62.913799 35.124666 68.613274 C 27.731275 80.459952 22.87103 93.540911 20.665133 107.468927 C 18.447116 121.396942 19.041011 135.337058 22.398338 148.889948 C 24.022459 155.412277 26.276838 161.813597 29.125111 167.912398 C 31.961264 173.962796 35.379192 179.771177 39.306173 185.180233 C 41.705995 188.495851 44.323983 191.666259 47.099534 194.679357 L 41.306025 200.342529 L 36.4579 205.086041 C 33.36722 201.758322 30.482586 198.273293 27.791877 194.630954 C 9.514445 169.824324 0.7757 137.987132 5.987434 105.145574 C 16.2897 40.067498 77.388195 -4.318218 142.462153 5.991659 " transform="matrix(0.32229,0,0,0.322809,0,0.0345863)"/>
<path style=" stroke:none;fill-rule:nonzero;fill:rgb(79.607843%,86.666667%,95.294118%);fill-opacity:1;" d="M 66.867188 40.964844 C 66.867188 55.8125 54.847656 67.851562 40.023438 67.851562 C 25.195312 67.851562 13.179688 55.8125 13.179688 40.964844 C 13.179688 26.113281 25.195312 14.078125 40.023438 14.078125 C 54.847656 14.078125 66.867188 26.113281 66.867188 40.964844 "/>
<path style=" stroke:none;fill-rule:nonzero;fill:rgb(79.607843%,86.666667%,95.294118%);fill-opacity:1;" d="M 29.425781 18.039062 C 29.449219 17.660156 29.488281 17.371094 29.53125 17.046875 C 29.574219 16.734375 29.621094 16.421875 29.675781 16.113281 C 29.78125 15.496094 29.910156 14.890625 30.050781 14.285156 C 30.335938 13.082031 30.703125 11.902344 31.144531 10.75 C 31.582031 9.597656 32.140625 8.492188 32.761719 7.441406 C 33.386719 6.386719 34.15625 5.421875 34.980469 4.542969 C 35.140625 4.375 35.40625 4.367188 35.574219 4.523438 C 35.71875 4.660156 35.746094 4.878906 35.648438 5.042969 L 35.636719 5.066406 C 35.054688 6.046875 34.554688 7.054688 34.203125 8.121094 C 33.855469 9.1875 33.578125 10.269531 33.417969 11.371094 C 33.25 12.476562 33.15625 13.582031 33.136719 14.695312 C 33.128906 15.246094 33.132812 15.800781 33.160156 16.347656 C 33.171875 16.621094 33.1875 16.890625 33.210938 17.160156 C 33.234375 17.417969 33.261719 17.714844 33.296875 17.914062 C 33.480469 18.980469 32.765625 19.992188 31.699219 20.175781 C 30.636719 20.359375 29.628906 19.640625 29.445312 18.578125 C 29.417969 18.425781 29.410156 18.273438 29.417969 18.128906 L 29.425781 18.03125 Z M 29.425781 18.039062 "/>
<path style=" stroke:none;fill-rule:nonzero;fill:rgb(79.607843%,86.666667%,95.294118%);fill-opacity:1;" d="M 27.902344 20.367188 C 27.773438 20.210938 27.570312 19.992188 27.390625 19.808594 C 27.203125 19.613281 27.015625 19.417969 26.816406 19.230469 C 26.421875 18.847656 26.007812 18.476562 25.589844 18.117188 C 24.746094 17.402344 23.847656 16.738281 22.914062 16.136719 C 21.980469 15.527344 20.988281 15.023438 19.957031 14.582031 C 18.925781 14.140625 17.839844 13.851562 16.71875 13.640625 L 16.699219 13.640625 C 16.46875 13.59375 16.320312 13.375 16.363281 13.148438 C 16.398438 12.949219 16.570312 12.8125 16.757812 12.804688 C 17.960938 12.765625 19.191406 12.820312 20.394531 13.046875 C 21.59375 13.277344 22.792969 13.585938 23.941406 14.019531 C 25.097656 14.445312 26.226562 14.949219 27.316406 15.527344 C 27.863281 15.816406 28.402344 16.125 28.933594 16.449219 C 29.203125 16.609375 29.46875 16.78125 29.726562 16.957031 C 30 17.136719 30.242188 17.300781 30.542969 17.535156 L 30.609375 17.585938 C 31.464844 18.246094 31.625 19.472656 30.96875 20.328125 C 30.3125 21.183594 29.082031 21.347656 28.230469 20.6875 C 28.105469 20.59375 27.992188 20.480469 27.902344 20.363281 "/>
<path style=" stroke:none;fill-rule:nonzero;fill:rgb(79.607843%,86.666667%,95.294118%);fill-opacity:1;" d="M 73.570312 57.832031 L 70.035156 58.242188 C 69.539062 58.296875 69.078125 58 68.910156 57.546875 L 68.773438 57.164062 L 62.683594 40.453125 C 62.042969 38.691406 62.949219 36.746094 64.707031 36.101562 C 66.464844 35.460938 68.410156 36.367188 69.050781 38.125 C 69.132812 38.359375 69.195312 38.613281 69.226562 38.847656 L 71.527344 56.488281 L 70.265625 55.410156 L 73.6875 56.382812 C 74.082031 56.496094 74.308594 56.90625 74.199219 57.300781 C 74.113281 57.597656 73.859375 57.800781 73.570312 57.835938 "/>
<path style="fill:none;stroke-width:1.85;stroke-linecap:butt;stroke-linejoin:round;stroke:rgb(79.607843%,86.666667%,95.294118%);stroke-opacity:1;stroke-miterlimit:4;" d="M 227.110416 177.774546 L 216.929353 178.984626 C 215.487036 179.154037 214.165922 178.270679 213.69323 176.91539 L 213.293259 175.765814 L 195.767288 125.983143 C 193.925 120.731398 196.530867 114.935117 201.585038 113.011091 C 206.651328 111.087064 212.250913 113.797642 214.10532 119.049388 C 214.335606 119.739133 214.505291 120.501483 214.614373 121.203329 L 221.232064 173.757082 L 217.59597 170.550371 L 227.449784 173.454562 C 228.576973 173.793385 229.243591 175.015565 228.916342 176.189342 C 228.686056 177.084801 227.934597 177.689841 227.110416 177.774546 Z M 227.110416 177.774546 " transform="matrix(0.32229,0,0,0.322809,0,0.0345863)"/>
<path style=" stroke:none;fill-rule:nonzero;fill:rgb(79.607843%,86.666667%,95.294118%);fill-opacity:1;" d="M 72.210938 27.21875 L 70.371094 30.269531 C 70.109375 30.703125 69.59375 30.882812 69.136719 30.734375 L 68.746094 30.609375 L 51.824219 25.222656 C 50.042969 24.65625 49.054688 22.746094 49.621094 20.960938 C 50.1875 19.175781 52.089844 18.183594 53.875 18.75 C 54.109375 18.824219 54.347656 18.933594 54.554688 19.054688 L 69.898438 28.007812 L 68.273438 28.351562 L 71.136719 26.230469 C 71.464844 25.988281 71.929688 26.054688 72.171875 26.386719 C 72.355469 26.632812 72.359375 26.964844 72.210938 27.210938 "/>
<path style="fill:none;stroke-width:1.85;stroke-linecap:butt;stroke-linejoin:round;stroke:rgb(79.607843%,86.666667%,95.294118%);stroke-opacity:1;stroke-miterlimit:4;" d="M 222.747103 83.654562 L 217.244481 92.463941 C 216.468781 93.698222 214.929502 94.218556 213.559906 93.795028 L 212.396356 93.444105 L 161.830413 77.918785 C 156.497475 76.285178 153.552239 70.791417 155.249083 65.636478 C 156.945927 60.49364 162.642473 57.637852 167.975411 59.283561 C 168.666269 59.501375 169.381367 59.815996 169.999503 60.154818 L 215.838525 85.965814 L 210.9904 86.945978 L 219.53522 80.835077 C 220.516966 80.145331 221.910802 80.338944 222.63802 81.294907 C 223.195555 82.008854 223.195555 82.952716 222.747103 83.666663 Z M 222.747103 83.654562 " transform="matrix(0.32229,0,0,0.322809,0,0.0345863)"/>
<path style=" stroke:none;fill-rule:nonzero;fill:rgb(79.607843%,86.666667%,95.294118%);fill-opacity:1;" d="M 44.480469 9.578125 L 42.640625 12.628906 L 42.882812 11.085938 L 47.855469 17.339844 C 49.050781 18.84375 48.804688 21.035156 47.300781 22.226562 C 45.800781 23.425781 43.617188 23.175781 42.417969 21.671875 C 42.050781 21.210938 41.820312 20.667969 41.71875 20.125 L 40.300781 12.257812 L 40.183594 11.621094 C 40.117188 11.261719 40.269531 10.917969 40.542969 10.714844 L 43.40625 8.59375 C 43.734375 8.351562 44.199219 8.421875 44.445312 8.75 C 44.628906 9 44.628906 9.324219 44.480469 9.578125 "/>
<path style="fill:none;stroke-width:14.81;stroke-linecap:butt;stroke-linejoin:round;stroke:rgb(79.607843%,86.666667%,95.294118%);stroke-opacity:1;stroke-miterlimit:4;" d="M 137.795833 38.458092 L 136.668644 43.492023 L 136.814087 40.938755 L 139.844166 51.248633 C 140.583505 53.729296 140.425941 57.335333 139.504797 59.307762 C 138.595773 61.280192 137.274659 60.868765 136.53532 58.388102 C 136.305034 57.625752 136.171711 56.730293 136.111109 55.834834 L 135.238447 42.874882 L 135.165725 41.822113 C 135.129364 41.229174 135.214206 40.660437 135.396011 40.333715 L 137.129216 36.836586 C 137.335261 36.437259 137.614028 36.546167 137.759472 37.102803 C 137.868555 37.51423 137.868555 38.046665 137.783713 38.458092 Z M 137.795833 38.458092 " transform="matrix(0.32229,0,0,0.322809,0,0.0345863)"/>
<path style=" stroke:none;fill-rule:nonzero;fill:rgb(79.607843%,86.666667%,95.294118%);fill-opacity:1;" d="M 14.230469 21.816406 L 17.710938 21.0625 C 18.0625 20.984375 18.414062 21.125 18.625 21.386719 L 19.027344 21.898438 L 23.988281 28.160156 C 25.179688 29.664062 24.925781 31.855469 23.425781 33.046875 C 21.921875 34.242188 19.738281 33.992188 18.542969 32.484375 C 18.175781 32.019531 17.945312 31.476562 17.847656 30.933594 L 16.441406 23.0625 L 17.761719 23.898438 L 14.257812 23.269531 C 13.855469 23.199219 13.585938 22.8125 13.660156 22.410156 C 13.714844 22.105469 13.945312 21.875 14.230469 21.816406 "/>
<path style="fill:none;stroke-width:14.81;stroke-linecap:butt;stroke-linejoin:round;stroke:rgb(79.607843%,86.666667%,95.294118%);stroke-opacity:1;stroke-miterlimit:4;" d="M 53.571781 76.720806 L 57.765409 75.631735 C 58.18962 75.522828 58.613831 75.71644 58.856238 76.103666 L 59.34105 76.841814 L 65.316364 85.90531 C 66.758681 88.095554 66.455673 91.265962 64.637627 92.984275 C 62.8317 94.714689 60.201592 94.351665 58.759275 92.173522 C 58.322944 91.495877 58.044177 90.709325 57.922973 89.934875 L 56.22613 78.535926 L 57.826011 79.746005 L 53.596022 78.838445 C 53.111209 78.729538 52.783961 78.185003 52.880923 77.592064 C 52.953645 77.144334 53.232413 76.817613 53.571781 76.732907 Z M 53.571781 76.720806 " transform="matrix(0.32229,0,0,0.322809,0,0.0345863)"/>
<path style=" stroke:none;fill-rule:nonzero;fill:rgb(79.607843%,86.666667%,95.294118%);fill-opacity:1;" d="M 30.0625 76.148438 L 31.59375 72.929688 L 31.566406 74.589844 L 19.863281 61.214844 C 18.628906 59.804688 18.769531 57.660156 20.179688 56.421875 C 21.585938 55.1875 23.726562 55.328125 24.960938 56.738281 C 25.125 56.925781 25.269531 57.144531 25.386719 57.347656 L 33.894531 72.964844 L 34.089844 73.320312 C 34.332031 73.765625 34.226562 74.304688 33.871094 74.625 L 31.230469 77.019531 C 30.925781 77.292969 30.457031 77.269531 30.183594 76.964844 C 29.972656 76.738281 29.9375 76.410156 30.0625 76.148438 "/>
<path style="fill:none;stroke-width:1.85;stroke-linecap:butt;stroke-linejoin:round;stroke:rgb(79.607843%,86.666667%,95.294118%);stroke-opacity:1;stroke-miterlimit:4;" d="M 92.68403 234.587779 L 97.156425 225.01605 L 97.095823 229.965275 L 62.795339 190.153659 C 59.195606 185.954684 59.595577 179.565464 63.716483 175.898923 C 67.837389 172.220281 74.115711 172.643809 77.727564 176.842785 C 78.212377 177.399421 78.636588 178.040764 78.975956 178.657904 L 103.907439 225.124957 L 104.477094 226.201928 C 105.192192 227.520915 104.877064 229.11822 103.834717 230.074182 L 96.101958 237.201551 C 95.205055 238.024405 93.835459 237.9518 93.035519 237.04424 C 92.417383 236.354495 92.3083 235.398532 92.68403 234.611981 Z M 92.68403 234.587779 " transform="matrix(0.32229,0,0,0.322809,0,0.0345863)"/>
<path style=" stroke:none;fill-rule:nonzero;fill:rgb(79.607843%,86.666667%,95.294118%);fill-opacity:1;" d="M 9.148438 54.320312 L 12.628906 53.570312 L 11.300781 54.566406 L 14.714844 37.113281 C 15.078125 35.273438 16.855469 34.074219 18.691406 34.4375 C 20.53125 34.796875 21.726562 36.578125 21.367188 38.417969 C 21.320312 38.660156 21.238281 38.910156 21.144531 39.128906 L 14.007812 55.417969 L 13.84375 55.792969 C 13.640625 56.253906 13.152344 56.5 12.675781 56.417969 L 9.171875 55.785156 C 8.769531 55.710938 8.503906 55.324219 8.574219 54.921875 C 8.628906 54.617188 8.863281 54.390625 9.148438 54.328125 "/>
<path style="fill:none;stroke-width:1.85;stroke-linecap:butt;stroke-linejoin:round;stroke:rgb(79.607843%,86.666667%,95.294118%);stroke-opacity:1;stroke-miterlimit:4;" d="M 29.585683 167.101645 L 39.657663 164.850897 L 35.815523 167.815592 L 45.717819 115.830576 C 46.760166 110.348916 51.923419 106.779181 57.244236 107.844051 C 62.565053 108.933123 66.043583 114.245372 65.001236 119.714931 C 64.855792 120.440979 64.625506 121.179127 64.358859 121.844671 L 43.681606 170.344658 L 43.208914 171.457931 C 42.615019 172.837422 41.196942 173.57557 39.827347 173.309353 L 29.682645 171.433729 C 28.506975 171.215915 27.731275 170.054239 27.93732 168.85626 C 28.094884 167.9487 28.785742 167.271056 29.597803 167.089544 Z M 29.585683 167.101645 " transform="matrix(0.32229,0,0,0.322809,0,0.0345863)"/>
<path style=" stroke:none;fill-rule:nonzero;fill:rgb(91.372549%,27.45098%,21.960784%);fill-opacity:1;" d="M 73.601562 57.480469 L 70.089844 57.554688 C 69.800781 57.558594 69.554688 57.367188 69.472656 57.105469 L 69.441406 56.996094 L 64.269531 40.0625 C 63.984375 39.140625 64.507812 38.160156 65.425781 37.878906 C 66.347656 37.597656 67.320312 38.117188 67.601562 39.039062 C 67.621094 39.105469 67.640625 39.167969 67.652344 39.234375 L 70.867188 56.644531 L 70.214844 56.085938 L 73.664062 56.730469 C 73.871094 56.769531 74.007812 56.964844 73.96875 57.171875 C 73.9375 57.351562 73.777344 57.476562 73.605469 57.480469 "/>
<path style=" stroke:none;fill-rule:nonzero;fill:rgb(91.372549%,27.45098%,21.960784%);fill-opacity:1;" d="M 67.339844 39.746094 C 67.148438 38.757812 65.960938 38.085938 64.691406 38.253906 L 52.851562 39.820312 C 51.585938 39.988281 50.746094 41.152344 50.984375 42.410156 L 51.15625 43.3125 C 51.394531 44.570312 52.605469 45.34375 53.84375 45.03125 L 65.429688 42.113281 C 66.664062 41.800781 67.527344 40.734375 67.335938 39.746094 "/>
<path style=" stroke:none;fill-rule:nonzero;fill:rgb(91.372549%,27.45098%,21.960784%);fill-opacity:1;" d="M 71.949219 26.984375 L 69.863281 29.808594 C 69.691406 30.042969 69.390625 30.125 69.128906 30.027344 L 69.023438 29.984375 L 52.476562 23.738281 C 51.574219 23.394531 51.121094 22.390625 51.464844 21.484375 C 51.800781 20.582031 52.808594 20.125 53.710938 20.46875 C 53.773438 20.492188 53.835938 20.519531 53.894531 20.550781 L 69.617188 28.640625 L 68.777344 28.820312 L 71.394531 26.476562 C 71.546875 26.335938 71.785156 26.351562 71.929688 26.503906 C 72.050781 26.640625 72.054688 26.839844 71.949219 26.984375 "/>
<path style=" stroke:none;fill-rule:nonzero;fill:rgb(91.372549%,27.45098%,21.960784%);fill-opacity:1;" d="M 44.222656 9.339844 L 42.136719 12.167969 L 42.261719 11.367188 L 46.378906 18.011719 C 46.890625 18.839844 46.636719 19.921875 45.808594 20.4375 C 44.984375 20.949219 43.902344 20.695312 43.394531 19.867188 C 43.3125 19.738281 43.246094 19.59375 43.207031 19.453125 L 40.925781 11.980469 L 40.875 11.8125 C 40.804688 11.578125 40.882812 11.332031 41.054688 11.179688 L 43.671875 8.835938 C 43.824219 8.699219 44.0625 8.710938 44.207031 8.867188 C 44.328125 9.003906 44.332031 9.203125 44.226562 9.34375 "/>
<path style=" stroke:none;fill-rule:nonzero;fill:rgb(91.372549%,27.45098%,21.960784%);fill-opacity:1;" d="M 14.234375 22.167969 L 17.71875 21.75 C 17.960938 21.722656 18.191406 21.839844 18.308594 22.035156 L 18.398438 22.183594 L 22.503906 28.832031 C 23.011719 29.660156 22.757812 30.742188 21.933594 31.253906 C 21.105469 31.761719 20.023438 31.507812 19.515625 30.683594 C 19.433594 30.554688 19.371094 30.40625 19.328125 30.269531 L 17.066406 22.785156 L 17.75 23.21875 L 14.25 22.921875 C 14.042969 22.90625 13.886719 22.722656 13.90625 22.511719 C 13.921875 22.328125 14.066406 22.1875 14.238281 22.167969 "/>
<path style=" stroke:none;fill-rule:nonzero;fill:rgb(91.372549%,27.45098%,21.960784%);fill-opacity:1;" d="M 54.109375 21.109375 C 53.214844 20.652344 51.953125 21.183594 51.3125 22.292969 L 45.3125 32.636719 C 44.671875 33.746094 45.078125 35.125 46.21875 35.703125 L 47.039062 36.117188 C 48.179688 36.695312 49.53125 36.207031 50.039062 35.035156 L 54.8125 24.070312 C 55.320312 22.894531 55.003906 21.566406 54.109375 21.109375 "/>
<path style=" stroke:none;fill-rule:nonzero;fill:rgb(91.372549%,27.45098%,21.960784%);fill-opacity:1;" d="M 30.34375 76.355469 L 32.140625 73.339844 L 32.128906 74.199219 L 21.195312 60.285156 C 20.597656 59.523438 20.730469 58.425781 21.488281 57.832031 C 22.246094 57.234375 23.339844 57.367188 23.9375 58.125 C 23.976562 58.175781 24.015625 58.230469 24.050781 58.289062 L 33.328125 73.359375 L 33.386719 73.457031 C 33.539062 73.707031 33.5 74.015625 33.316406 74.222656 L 30.941406 76.816406 C 30.800781 76.96875 30.5625 76.980469 30.40625 76.835938 C 30.273438 76.714844 30.246094 76.515625 30.335938 76.363281 "/>
<path style=" stroke:none;fill-rule:nonzero;fill:rgb(91.372549%,27.45098%,21.960784%);fill-opacity:1;" d="M 21.785156 60.386719 C 21.171875 59.59375 21.453125 58.253906 22.414062 57.410156 L 31.410156 49.539062 C 32.371094 48.695312 33.800781 48.832031 34.585938 49.84375 L 35.148438 50.570312 C 35.933594 51.582031 35.714844 53 34.664062 53.726562 L 24.824219 60.515625 C 23.773438 61.242188 22.410156 61.183594 21.789062 60.390625 "/>
<path style=" stroke:none;fill-rule:nonzero;fill:rgb(91.372549%,27.45098%,21.960784%);fill-opacity:1;" d="M 9.152344 54.671875 L 12.636719 54.253906 L 11.949219 54.769531 L 16.265625 37.597656 C 16.5 36.660156 17.449219 36.09375 18.382812 36.328125 C 19.316406 36.5625 19.886719 37.511719 19.648438 38.449219 C 19.632812 38.511719 19.613281 38.578125 19.59375 38.640625 L 13.351562 55.210938 L 13.3125 55.316406 C 13.210938 55.585938 12.941406 55.75 12.664062 55.726562 L 9.167969 55.429688 C 8.960938 55.414062 8.804688 55.230469 8.824219 55.019531 C 8.839844 54.835938 8.980469 54.695312 9.15625 54.671875 "/>
<path style=" stroke:none;fill-rule:nonzero;fill:rgb(91.372549%,27.45098%,21.960784%);fill-opacity:1;" d="M 16.542969 38.125 C 16.792969 37.152344 18.027344 36.558594 19.28125 36.800781 L 30.996094 39.125 C 32.25 39.371094 33.015625 40.589844 32.695312 41.824219 L 32.46875 42.714844 C 32.148438 43.957031 30.890625 44.648438 29.675781 44.257812 L 18.300781 40.609375 C 17.085938 40.21875 16.296875 39.101562 16.542969 38.125 "/>
<path style=" stroke:none;fill-rule:nonzero;fill:rgb(91.372549%,27.45098%,21.960784%);fill-opacity:1;" d="M 41.773438 21.550781 C 42.769531 23.753906 41.792969 26.351562 39.59375 27.347656 L 30.671875 31.429688 C 28.472656 32.429688 25.75 31.449219 24.972656 29.246094 C 23.8125 27.039062 24.863281 24.445312 27.066406 23.449219 L 36.03125 19.363281 C 38.234375 18.367188 40.800781 19.34375 41.796875 21.550781 Z M 41.773438 21.550781 "/>
<path style=" stroke:none;fill-rule:nonzero;fill:rgb(91.372549%,27.45098%,21.960784%);fill-opacity:1;" d="M 37.640625 18.867188 C 38.277344 20.285156 37.652344 21.953125 36.234375 22.59375 L 29.921875 25.453125 C 28.507812 26.09375 26.839844 25.464844 26.203125 24.046875 L 26.167969 23.972656 C 25.523438 22.558594 26.152344 20.886719 27.570312 20.25 L 33.882812 17.390625 C 35.296875 16.746094 36.964844 17.375 37.605469 18.792969 Z M 37.640625 18.867188 "/>
<path style=" stroke:none;fill-rule:nonzero;fill:rgb(100%,100%,100%);fill-opacity:1;" d="M 29.003906 21.964844 C 29.003906 22.484375 28.582031 22.902344 28.066406 22.902344 C 27.546875 22.902344 27.125 22.484375 27.125 21.964844 C 27.125 21.441406 27.546875 21.023438 28.066406 21.023438 C 28.582031 21.023438 29.003906 21.441406 29.003906 21.964844 "/>
<path style=" stroke:none;fill-rule:nonzero;fill:rgb(87.843137%,3.529412%,7.843137%);fill-opacity:1;" d="M 28.828125 21.574219 C 28.828125 22 28.488281 22.339844 28.066406 22.339844 C 27.644531 22.339844 27.300781 22 27.300781 21.574219 C 27.300781 21.152344 27.644531 20.8125 28.066406 20.8125 C 28.488281 20.8125 28.828125 21.152344 28.828125 21.574219 "/>
<path style=" stroke:none;fill-rule:nonzero;fill:rgb(100%,100%,100%);fill-opacity:1;" d="M 28.386719 21.574219 C 28.386719 21.753906 28.242188 21.898438 28.066406 21.898438 C 27.886719 21.898438 27.742188 21.753906 27.742188 21.574219 C 27.742188 21.398438 27.886719 21.253906 28.066406 21.253906 C 28.242188 21.253906 28.386719 21.398438 28.386719 21.574219 "/>
<path style=" stroke:none;fill-rule:nonzero;fill:rgb(100%,100%,100%);fill-opacity:1;" d="M 34.25 19.621094 C 34.636719 19.972656 35.230469 19.9375 35.578125 19.550781 C 35.925781 19.164062 35.894531 18.570312 35.507812 18.222656 C 35.121094 17.871094 34.527344 17.90625 34.179688 18.292969 C 33.832031 18.679688 33.863281 19.273438 34.25 19.621094 "/>
<path style=" stroke:none;fill-rule:nonzero;fill:rgb(87.843137%,3.529412%,7.843137%);fill-opacity:1;" d="M 34.078125 19.230469 C 34.390625 19.515625 34.875 19.492188 35.160156 19.175781 C 35.4375 18.859375 35.417969 18.375 35.101562 18.09375 C 34.789062 17.808594 34.304688 17.835938 34.019531 18.152344 C 33.738281 18.46875 33.761719 18.949219 34.078125 19.230469 "/>
<path style=" stroke:none;fill-rule:nonzero;fill:rgb(100%,100%,100%);fill-opacity:1;" d="M 34.375 18.90625 C 34.507812 19.027344 34.710938 19.015625 34.828125 18.882812 C 34.949219 18.75 34.9375 18.546875 34.808594 18.429688 C 34.675781 18.308594 34.472656 18.320312 34.351562 18.453125 C 34.234375 18.585938 34.242188 18.789062 34.375 18.910156 "/>
<path style=" stroke:none;fill-rule:nonzero;fill:rgb(91.372549%,27.45098%,21.960784%);fill-opacity:1;" d="M 60.140625 35.59375 C 64.730469 45.75 60.226562 57.707031 50.085938 62.300781 C 39.949219 66.894531 28.011719 62.386719 23.425781 52.234375 C 18.835938 42.078125 23.335938 30.121094 33.480469 25.527344 C 43.617188 20.933594 55.554688 25.441406 60.140625 35.597656 "/>
<path style=" stroke:none;fill-rule:nonzero;fill:rgb(87.843137%,3.529412%,7.843137%);fill-opacity:1;" d="M 56.910156 37.058594 C 60.691406 45.429688 56.980469 55.28125 48.625 59.0625 C 40.265625 62.851562 30.429688 59.132812 26.652344 50.765625 C 22.871094 42.394531 26.582031 32.542969 34.9375 28.753906 C 43.292969 24.96875 53.132812 28.683594 56.910156 37.054688 "/>
<path style=" stroke:none;fill-rule:nonzero;fill:rgb(91.372549%,27.45098%,21.960784%);fill-opacity:1;" d="M 42.546875 29.382812 C 45.03125 29.21875 47.597656 29.855469 49.824219 31.125 C 50.105469 31.277344 50.378906 31.445312 50.644531 31.628906 L 51.046875 31.894531 L 51.433594 32.1875 C 51.6875 32.382812 51.945312 32.582031 52.179688 32.804688 C 52.417969 33.027344 52.664062 33.234375 52.882812 33.472656 C 53.792969 34.390625 54.582031 35.445312 55.207031 36.578125 C 56.460938 38.847656 57.101562 41.484375 56.949219 44.070312 C 56.800781 46.644531 55.921875 49.167969 54.390625 51.136719 L 53.378906 50.5625 C 54.1875 48.410156 54.59375 46.210938 54.5 44.042969 C 54.417969 41.878906 53.839844 39.769531 52.839844 37.871094 C 52.332031 36.925781 51.714844 36.042969 51.007812 35.234375 C 50.839844 35.023438 50.640625 34.839844 50.453125 34.644531 C 50.269531 34.449219 50.066406 34.273438 49.863281 34.09375 L 49.566406 33.820312 L 49.246094 33.566406 C 49.035156 33.390625 48.824219 33.226562 48.59375 33.074219 C 46.816406 31.8125 44.726562 30.960938 42.480469 30.539062 L 42.542969 29.378906 Z M 42.546875 29.382812 "/>
<path style=" stroke:none;fill-rule:nonzero;fill:rgb(93.333333%,44.705882%,39.607843%);fill-opacity:1;" d="M 50.597656 30.257812 C 50 30.191406 49.40625 30.105469 48.8125 30.011719 L 48.378906 29.945312 C 48.25 29.929688 48.113281 29.925781 47.976562 29.933594 C 47.703125 29.945312 47.425781 29.988281 47.160156 30.050781 C 46.890625 30.125 46.65625 30.199219 46.433594 30.332031 L 45.644531 30.757812 C 45.121094 31.042969 44.589844 31.308594 44.058594 31.585938 C 41.941406 32.683594 39.789062 33.707031 37.621094 34.691406 C 35.453125 35.671875 33.261719 36.617188 31.042969 37.488281 C 30.484375 37.703125 29.933594 37.929688 29.375 38.136719 L 28.539062 38.445312 C 28.289062 38.527344 28.078125 38.652344 27.847656 38.808594 C 27.621094 38.960938 27.40625 39.140625 27.21875 39.339844 C 27.125 39.441406 27.035156 39.542969 26.960938 39.652344 L 26.722656 40.023438 C 26.402344 40.527344 26.078125 41.03125 25.730469 41.527344 C 25.921875 40.957031 26.128906 40.390625 26.339844 39.832031 C 26.394531 39.6875 26.4375 39.558594 26.503906 39.40625 C 26.574219 39.257812 26.65625 39.109375 26.742188 38.976562 C 26.921875 38.703125 27.128906 38.457031 27.359375 38.230469 C 27.589844 38.007812 27.871094 37.789062 28.171875 37.636719 L 28.957031 37.210938 C 29.484375 36.929688 30.019531 36.664062 30.546875 36.386719 C 32.664062 35.292969 34.816406 34.265625 36.984375 33.28125 C 39.15625 32.300781 41.347656 31.359375 43.566406 30.488281 C 44.121094 30.273438 44.671875 30.046875 45.234375 29.839844 L 46.070312 29.527344 C 46.378906 29.402344 46.730469 29.328125 47.046875 29.304688 C 47.375 29.28125 47.691406 29.289062 48.015625 29.335938 C 48.175781 29.359375 48.332031 29.390625 48.496094 29.441406 C 48.65625 29.492188 48.78125 29.546875 48.925781 29.597656 C 49.488281 29.808594 50.046875 30.023438 50.597656 30.257812 "/>
<path style=" stroke:none;fill-rule:nonzero;fill:rgb(93.333333%,44.705882%,39.607843%);fill-opacity:1;" d="M 54.734375 33.988281 C 54.042969 33.894531 53.355469 33.78125 52.667969 33.664062 L 52.152344 33.578125 C 51.980469 33.542969 51.847656 33.53125 51.683594 33.527344 C 51.367188 33.527344 51.039062 33.574219 50.734375 33.648438 C 50.582031 33.6875 50.433594 33.730469 50.296875 33.789062 C 50.226562 33.816406 50.167969 33.84375 50.101562 33.882812 L 49.871094 34 L 48.949219 34.488281 C 48.332031 34.8125 47.710938 35.117188 47.09375 35.4375 C 45.859375 36.074219 44.601562 36.660156 43.355469 37.273438 L 39.582031 39.03125 L 35.769531 40.710938 C 34.488281 41.246094 33.21875 41.804688 31.925781 42.3125 C 31.28125 42.566406 30.640625 42.835938 29.992188 43.085938 L 29.019531 43.457031 L 28.773438 43.550781 C 28.703125 43.574219 28.644531 43.601562 28.574219 43.632812 C 28.441406 43.699219 28.308594 43.78125 28.179688 43.871094 C 27.921875 44.054688 27.671875 44.265625 27.464844 44.503906 C 27.359375 44.628906 27.277344 44.738281 27.1875 44.890625 L 26.914062 45.335938 C 26.546875 45.929688 26.179688 46.519531 25.789062 47.101562 C 26.023438 46.441406 26.277344 45.789062 26.53125 45.140625 L 26.722656 44.652344 C 26.785156 44.492188 26.882812 44.300781 26.980469 44.148438 C 27.183594 43.824219 27.425781 43.539062 27.703125 43.277344 C 27.84375 43.148438 27.992188 43.03125 28.160156 42.917969 C 28.238281 42.863281 28.335938 42.808594 28.421875 42.761719 L 28.652344 42.640625 L 29.574219 42.152344 C 30.1875 41.824219 30.8125 41.523438 31.429688 41.207031 C 32.664062 40.566406 33.921875 39.980469 35.167969 39.367188 L 38.941406 37.613281 L 42.75 35.933594 C 44.03125 35.398438 45.304688 34.84375 46.597656 34.332031 C 47.242188 34.078125 47.882812 33.808594 48.535156 33.5625 L 49.507812 33.191406 L 49.75 33.097656 C 49.839844 33.0625 49.945312 33.027344 50.039062 33 C 50.230469 32.949219 50.421875 32.914062 50.613281 32.898438 C 50.988281 32.859375 51.363281 32.867188 51.738281 32.929688 C 51.917969 32.953125 52.128906 33.007812 52.289062 33.070312 L 52.777344 33.246094 C 53.433594 33.480469 54.085938 33.71875 54.738281 33.980469 "/>
<path style=" stroke:none;fill-rule:nonzero;fill:rgb(93.333333%,44.705882%,39.607843%);fill-opacity:1;" d="M 58.632812 37.742188 C 57.859375 37.667969 57.082031 37.585938 56.3125 37.488281 L 55.738281 37.417969 C 55.546875 37.394531 55.390625 37.386719 55.203125 37.398438 C 54.84375 37.414062 54.480469 37.480469 54.140625 37.582031 C 53.972656 37.636719 53.808594 37.695312 53.675781 37.769531 L 53.160156 38.039062 L 52.128906 38.574219 C 51.4375 38.933594 50.742188 39.273438 50.046875 39.625 C 48.664062 40.328125 47.261719 40.984375 45.863281 41.660156 L 41.644531 43.617188 L 37.394531 45.5 C 35.964844 46.097656 34.550781 46.726562 33.105469 47.300781 C 32.386719 47.589844 31.671875 47.890625 30.949219 48.171875 L 29.867188 48.59375 L 29.324219 48.804688 C 29.179688 48.859375 29.027344 48.945312 28.878906 49.035156 C 28.578125 49.21875 28.289062 49.449219 28.035156 49.707031 C 27.90625 49.839844 27.808594 49.964844 27.699219 50.125 L 27.371094 50.605469 C 26.929688 51.25 26.488281 51.886719 26.027344 52.515625 C 26.339844 51.800781 26.667969 51.097656 27 50.394531 L 27.253906 49.867188 C 27.332031 49.6875 27.457031 49.488281 27.574219 49.324219 C 27.824219 48.984375 28.105469 48.6875 28.433594 48.417969 C 28.597656 48.28125 28.773438 48.164062 28.980469 48.050781 L 29.5 47.78125 L 30.535156 47.246094 C 31.222656 46.886719 31.917969 46.546875 32.613281 46.195312 C 33.996094 45.488281 35.398438 44.839844 36.796875 44.160156 L 41.015625 42.203125 L 45.265625 40.324219 C 46.691406 39.722656 48.113281 39.097656 49.554688 38.523438 C 50.273438 38.234375 50.988281 37.933594 51.710938 37.652344 L 52.796875 37.230469 L 53.34375 37.015625 C 53.558594 36.933594 53.765625 36.878906 53.976562 36.84375 C 54.394531 36.777344 54.804688 36.761719 55.222656 36.796875 C 55.425781 36.8125 55.65625 36.855469 55.84375 36.910156 L 56.402344 37.066406 C 57.152344 37.28125 57.894531 37.503906 58.640625 37.738281 "/>
<path style=" stroke:none;fill-rule:nonzero;fill:rgb(93.333333%,44.705882%,39.607843%);fill-opacity:1;" d="M 58.242188 48.367188 C 57.664062 48.289062 57.089844 48.191406 56.519531 48.089844 L 56.097656 48.015625 C 55.972656 47.996094 55.84375 47.988281 55.710938 47.992188 C 55.445312 47.996094 55.179688 48.03125 54.925781 48.089844 C 54.671875 48.148438 54.417969 48.230469 54.226562 48.339844 L 53.460938 48.753906 C 52.957031 49.03125 52.4375 49.289062 51.925781 49.558594 C 49.875 50.621094 47.789062 51.617188 45.691406 52.570312 C 43.589844 53.519531 41.46875 54.429688 39.316406 55.269531 C 38.777344 55.476562 38.242188 55.695312 37.703125 55.898438 L 36.890625 56.195312 C 36.679688 56.269531 36.453125 56.40625 36.242188 56.558594 C 36.027344 56.710938 35.824219 56.890625 35.644531 57.085938 C 35.554688 57.179688 35.476562 57.285156 35.40625 57.390625 L 35.183594 57.757812 C 34.882812 58.253906 34.578125 58.746094 34.253906 59.234375 C 34.421875 58.675781 34.605469 58.125 34.792969 57.574219 C 34.84375 57.4375 34.882812 57.308594 34.941406 57.160156 C 35.003906 57.007812 35.078125 56.863281 35.160156 56.730469 C 35.324219 56.460938 35.519531 56.214844 35.738281 55.988281 C 35.960938 55.761719 36.210938 55.554688 36.523438 55.386719 L 37.285156 54.96875 C 37.792969 54.691406 38.3125 54.433594 38.824219 54.167969 C 40.875 53.101562 42.957031 52.105469 45.058594 51.15625 C 47.160156 50.207031 49.28125 49.296875 51.433594 48.457031 C 51.972656 48.25 52.507812 48.03125 53.050781 47.828125 L 53.863281 47.53125 C 54.195312 47.40625 54.515625 47.355469 54.832031 47.339844 C 55.148438 47.324219 55.460938 47.339844 55.769531 47.394531 C 55.921875 47.417969 56.078125 47.457031 56.234375 47.511719 C 56.382812 47.566406 56.507812 47.625 56.640625 47.679688 C 57.179688 47.898438 57.714844 48.125 58.246094 48.367188 "/>
<path style=" stroke:none;fill-rule:nonzero;fill:rgb(93.333333%,44.705882%,39.607843%);fill-opacity:1;" d="M 56.242188 54.496094 C 55.847656 54.386719 55.457031 54.257812 55.074219 54.125 L 54.78125 54.023438 C 54.691406 53.992188 54.617188 53.972656 54.527344 53.960938 C 54.355469 53.929688 54.171875 53.925781 53.996094 53.933594 C 53.644531 53.945312 53.28125 54.023438 53.03125 54.171875 C 52.714844 54.359375 52.335938 54.566406 51.988281 54.757812 C 50.566406 55.527344 49.121094 56.238281 47.652344 56.90625 C 46.179688 57.574219 44.691406 58.191406 43.175781 58.753906 C 42.800781 58.890625 42.398438 59.039062 42.046875 59.152344 C 41.773438 59.242188 41.472656 59.464844 41.234375 59.71875 C 41.109375 59.84375 40.996094 59.984375 40.902344 60.136719 C 40.851562 60.210938 40.816406 60.285156 40.78125 60.367188 L 40.667969 60.652344 C 40.507812 61.03125 40.351562 61.402344 40.171875 61.773438 C 40.183594 61.363281 40.214844 60.957031 40.25 60.546875 L 40.28125 60.246094 C 40.292969 60.136719 40.320312 60.011719 40.351562 59.902344 C 40.414062 59.679688 40.507812 59.46875 40.621094 59.269531 C 40.859375 58.878906 41.148438 58.519531 41.601562 58.242188 C 41.980469 58.019531 42.3125 57.839844 42.675781 57.644531 C 44.097656 56.875 45.546875 56.160156 47.015625 55.492188 C 48.484375 54.828125 49.976562 54.210938 51.492188 53.648438 C 51.878906 53.507812 52.238281 53.375 52.652344 53.238281 C 53.160156 53.085938 53.621094 53.097656 54.066406 53.179688 C 54.289062 53.226562 54.507812 53.292969 54.71875 53.390625 C 54.820312 53.441406 54.929688 53.5 55.019531 53.5625 L 55.269531 53.742188 C 55.597656 53.984375 55.925781 54.230469 56.242188 54.492188 "/>
<path style=" stroke:none;fill-rule:nonzero;fill:rgb(93.333333%,44.705882%,39.607843%);fill-opacity:1;" d="M 44.109375 25.300781 C 43.136719 26.671875 41.882812 27.828125 40.546875 28.84375 C 39.875 29.347656 39.175781 29.816406 38.457031 30.253906 C 38.097656 30.472656 37.730469 30.671875 37.351562 30.875 C 36.960938 31.0625 36.585938 31.230469 36.207031 31.410156 L 35.050781 31.917969 C 34.644531 32.070312 34.253906 32.210938 33.851562 32.339844 C 33.046875 32.597656 32.234375 32.816406 31.414062 32.984375 C 29.769531 33.320312 28.078125 33.496094 26.40625 33.324219 C 28.011719 32.847656 29.558594 32.363281 31.089844 31.808594 C 31.851562 31.535156 32.609375 31.253906 33.359375 30.957031 C 33.734375 30.808594 34.109375 30.660156 34.472656 30.5 L 35.570312 29.996094 L 36.671875 29.503906 C 37.027344 29.339844 37.390625 29.148438 37.746094 28.96875 C 38.460938 28.601562 39.175781 28.214844 39.886719 27.820312 C 41.3125 27.039062 42.695312 26.199219 44.113281 25.296875 "/>
<path style=" stroke:none;fill-rule:nonzero;fill:rgb(91.372549%,27.45098%,21.960784%);fill-opacity:1;" d="M 33.472656 17.589844 C 34.039062 18.84375 33.171875 20.460938 31.53125 21.207031 C 29.890625 21.949219 28.101562 21.535156 27.53125 20.28125 C 26.964844 19.027344 27.835938 17.40625 29.480469 16.664062 C 31.121094 15.921875 32.910156 16.332031 33.476562 17.589844 "/>
<path style=" stroke:none;fill-rule:nonzero;fill:rgb(91.372549%,27.45098%,21.960784%);fill-opacity:1;" d="M 20.003906 30.558594 C 19.703125 29.898438 20.695312 28.707031 22.199219 27.90625 L 26.460938 25.644531 C 27.964844 24.847656 29.566406 25.015625 30.019531 26.019531 C 30.476562 27.023438 29.542969 28.339844 27.949219 28.949219 L 23.441406 30.660156 C 21.847656 31.261719 20.300781 31.21875 20 30.558594 "/>
<path style=" stroke:none;fill-rule:nonzero;fill:rgb(91.372549%,27.45098%,21.960784%);fill-opacity:1;" d="M 46.148438 18.714844 C 45.847656 18.054688 44.300781 18.007812 42.710938 18.617188 L 38.203125 20.328125 C 36.613281 20.929688 35.679688 22.25 36.132812 23.253906 C 36.585938 24.261719 38.1875 24.429688 39.691406 23.628906 L 43.953125 21.367188 C 45.457031 20.570312 46.445312 19.378906 46.148438 18.714844 "/>
<path style=" stroke:none;fill-rule:nonzero;fill:rgb(91.372549%,27.45098%,21.960784%);fill-opacity:1;" d="M 30.78125 18.003906 C 30.808594 16.777344 30.941406 15.609375 31.132812 14.433594 C 31.328125 13.265625 31.597656 12.109375 31.945312 10.972656 C 32.285156 9.839844 32.746094 8.742188 33.269531 7.683594 C 33.800781 6.625 34.472656 5.648438 35.214844 4.734375 C 35.253906 4.679688 35.335938 4.671875 35.386719 4.714844 C 35.4375 4.757812 35.449219 4.832031 35.410156 4.886719 L 35.410156 4.894531 C 34.738281 5.839844 34.148438 6.828125 33.699219 7.890625 C 33.253906 8.953125 32.878906 10.042969 32.621094 11.164062 C 32.359375 12.285156 32.171875 13.417969 32.054688 14.5625 C 31.945312 15.699219 31.894531 16.867188 31.941406 17.96875 L 31.941406 17.992188 C 31.957031 18.316406 31.710938 18.585938 31.386719 18.597656 C 31.070312 18.613281 30.792969 18.363281 30.78125 18.042969 C 30.78125 18.03125 30.78125 18.019531 30.78125 18.003906 "/>
<path style=" stroke:none;fill-rule:nonzero;fill:rgb(91.372549%,27.45098%,21.960784%);fill-opacity:1;" d="M 28.824219 19.378906 C 28.027344 18.613281 27.117188 17.878906 26.191406 17.210938 C 25.261719 16.542969 24.285156 15.9375 23.273438 15.394531 C 22.265625 14.847656 21.195312 14.410156 20.109375 14.042969 C 19.015625 13.679688 17.878906 13.46875 16.734375 13.347656 L 16.726562 13.347656 C 16.660156 13.339844 16.609375 13.277344 16.613281 13.207031 C 16.621094 13.140625 16.679688 13.09375 16.742188 13.09375 C 17.917969 13.144531 19.09375 13.28125 20.238281 13.582031 C 21.378906 13.886719 22.503906 14.265625 23.582031 14.757812 C 24.660156 15.246094 25.707031 15.808594 26.710938 16.433594 C 27.71875 17.066406 28.679688 17.738281 29.617188 18.523438 C 29.863281 18.730469 29.894531 19.101562 29.6875 19.34375 C 29.484375 19.589844 29.117188 19.621094 28.871094 19.417969 C 28.859375 19.410156 28.851562 19.398438 28.84375 19.394531 L 28.828125 19.378906 Z M 28.824219 19.378906 "/>
<path style="fill:none;stroke-width:26;stroke-linecap:butt;stroke-linejoin:miter;stroke:rgb(88.627451%,14.509804%,11.764706%);stroke-opacity:1;stroke-miterlimit:10;" d="M 35.924606 200.826561 L 197.342928 48.392845 " transform="matrix(0.32229,0,0,0.322809,0,0.0345863)"/>
<path style=" stroke:none;fill-rule:nonzero;fill:rgb(16.078431%,19.607843%,45.098039%);fill-opacity:1;" d="M 92.609375 31.882812 C 94.183594 33.972656 96.523438 35.332031 98.695312 35.332031 C 100.4375 35.332031 101.5 34.566406 101.5 32.859375 C 101.5 28.304688 88.398438 29.792969 88.398438 19.566406 C 88.398438 14.582031 92.566406 10.445312 98.609375 10.445312 C 103.328125 10.445312 106.988281 12.492188 109.753906 15.558594 L 104.265625 20.585938 C 102.519531 18.542969 100.648438 17.050781 98.648438 17.050781 C 97.117188 17.050781 96.054688 17.984375 96.054688 19.222656 C 96.054688 23.65625 109.160156 22.164062 109.160156 32.601562 C 109.074219 38.566406 104.394531 41.976562 98.777344 41.976562 C 93.160156 41.976562 89.84375 40.058594 87.121094 36.949219 L 92.609375 31.875 Z M 92.609375 31.882812 "/>
<path style=" stroke:none;fill-rule:nonzero;fill:rgb(16.078431%,19.607843%,45.098039%);fill-opacity:1;" d="M 112.222656 11.300781 L 137.148438 11.300781 L 137.148438 18.160156 L 128.472656 18.160156 L 128.472656 41.128906 L 120.898438 41.128906 L 120.898438 18.160156 L 112.21875 18.160156 L 112.21875 11.300781 Z M 112.222656 11.300781 "/>
<path style=" stroke:none;fill-rule:nonzero;fill:rgb(16.078431%,19.607843%,45.098039%);fill-opacity:1;" d="M 170.546875 26.214844 C 170.546875 34.738281 164.082031 41.980469 154.632812 41.980469 C 145.1875 41.980469 138.679688 34.738281 138.679688 26.214844 C 138.679688 17.691406 145.144531 10.449219 154.632812 10.449219 C 164.121094 10.449219 170.546875 17.691406 170.546875 26.214844 Z M 162.757812 26.214844 C 162.757812 21.183594 159.355469 17.5625 154.632812 17.5625 C 149.914062 17.5625 146.46875 21.226562 146.46875 26.214844 C 146.46875 31.203125 149.871094 34.867188 154.632812 34.867188 C 159.398438 34.867188 162.757812 31.203125 162.757812 26.214844 Z M 162.757812 26.214844 "/>
<path style=" stroke:none;fill-rule:nonzero;fill:rgb(16.078431%,19.607843%,45.098039%);fill-opacity:1;" d="M 176.246094 11.300781 L 186.882812 11.300781 C 193.859375 11.300781 198.15625 14.75 198.15625 20.589844 C 198.15625 26.429688 193.859375 29.839844 186.882812 29.839844 L 183.820312 29.839844 L 183.820312 41.132812 L 176.246094 41.132812 Z M 183.820312 17.5625 L 183.820312 23.570312 L 187.308594 23.570312 C 189.222656 23.570312 190.328125 22.335938 190.328125 20.503906 C 190.328125 18.800781 189.222656 17.5625 187.308594 17.5625 Z M 183.820312 17.5625 "/>
<path style=" stroke:none;fill-rule:nonzero;fill:rgb(88.627451%,14.509804%,11.764706%);fill-opacity:1;" d="M 87.734375 52.335938 L 91.9375 52.335938 L 91.9375 53.078125 C 92.835938 52.257812 94 51.808594 95.636719 51.808594 C 99.890625 51.808594 102.347656 55.117188 102.347656 59.003906 C 102.347656 62.894531 99.890625 66.203125 95.636719 66.203125 C 94 66.203125 92.835938 65.753906 91.9375 64.933594 L 91.9375 72.1875 L 87.734375 72.1875 L 87.734375 52.332031 Z M 91.9375 57.339844 L 91.9375 60.675781 C 92.730469 61.707031 93.707031 62.261719 95.027344 62.261719 C 96.878906 62.261719 98.015625 60.964844 98.015625 59.003906 C 98.015625 57.046875 96.878906 55.75 95.027344 55.75 C 93.679688 55.75 92.675781 56.328125 91.9375 57.335938 Z M 91.9375 57.339844 "/>
<path style=" stroke:none;fill-rule:nonzero;fill:rgb(88.627451%,14.509804%,11.764706%);fill-opacity:1;" d="M 113.394531 52.335938 L 117.621094 52.335938 L 117.621094 59.640625 C 117.621094 63.636719 115.246094 66.207031 111.148438 66.207031 C 107.050781 66.207031 104.699219 63.640625 104.699219 59.640625 L 104.699219 52.335938 L 108.925781 52.335938 L 108.925781 59.878906 C 108.925781 61.285156 109.613281 62.261719 111.171875 62.261719 C 112.734375 62.261719 113.394531 61.285156 113.394531 59.878906 Z M 113.394531 52.335938 "/>
<path style=" stroke:none;fill-rule:nonzero;fill:rgb(88.627451%,14.509804%,11.764706%);fill-opacity:1;" d="M 120.792969 52.335938 L 124.996094 52.335938 L 124.996094 53.078125 C 125.871094 52.335938 126.980469 51.808594 128.539062 51.808594 C 131.363281 51.808594 133.691406 53.792969 133.691406 57.84375 L 133.691406 65.679688 L 129.464844 65.679688 L 129.464844 58.027344 C 129.464844 56.679688 128.75 55.75 127.402344 55.75 C 125.921875 55.75 125.261719 56.917969 124.996094 57.367188 L 124.996094 65.679688 L 120.792969 65.679688 Z M 120.792969 52.335938 "/>
<path style=" stroke:none;fill-rule:nonzero;fill:rgb(88.627451%,14.509804%,11.764706%);fill-opacity:1;" d="M 136.28125 61.921875 C 136.28125 59.882812 137.839844 58.320312 140.746094 57.84375 L 144.5 57.207031 C 144.472656 56.199219 143.597656 55.433594 142.359375 55.433594 C 141.25 55.433594 140.429688 55.964844 139.820312 56.839844 L 136.757812 54.507812 C 137.972656 52.8125 140.007812 51.808594 142.492188 51.808594 C 146.71875 51.808594 148.675781 54.351562 148.675781 57.261719 L 148.675781 65.679688 L 144.5 65.679688 L 144.5 64.675781 C 143.757812 65.492188 142.253906 66.078125 140.851562 66.078125 C 138.15625 66.078125 136.277344 64.515625 136.277344 61.921875 Z M 141.777344 62.820312 C 143.125 62.820312 143.972656 62.183594 144.5 61.390625 L 144.5 60.066406 L 141.882812 60.515625 C 140.800781 60.699219 140.429688 61.097656 140.429688 61.707031 C 140.429688 62.394531 140.960938 62.816406 141.777344 62.816406 Z M 141.777344 62.820312 "/>
<path style=" stroke:none;fill-rule:nonzero;fill:rgb(88.627451%,14.509804%,11.764706%);fill-opacity:1;" d="M 151.449219 48.207031 C 151.449219 46.777344 152.664062 45.558594 154.117188 45.558594 C 155.574219 45.558594 156.734375 46.777344 156.734375 48.207031 C 156.734375 49.636719 155.519531 50.878906 154.117188 50.878906 C 152.71875 50.878906 151.449219 49.636719 151.449219 48.207031 Z M 151.980469 52.335938 L 156.179688 52.335938 L 156.179688 65.679688 L 151.980469 65.679688 Z M 151.980469 52.335938 "/>
<path style=" stroke:none;fill-rule:nonzero;fill:rgb(88.627451%,14.509804%,11.764706%);fill-opacity:1;" d="M 161.121094 61.152344 C 161.835938 62.078125 162.734375 62.871094 163.921875 62.871094 C 164.691406 62.871094 165.0625 62.476562 165.0625 61.945312 C 165.0625 60.117188 158.902344 60.863281 158.902344 56.175781 C 158.902344 53.632812 161.042969 51.808594 163.972656 51.808594 C 166.089844 51.808594 168.097656 52.839844 169.101562 54.136719 L 166.351562 56.601562 C 165.71875 55.859375 164.925781 55.144531 163.972656 55.144531 C 163.234375 55.144531 162.890625 55.515625 162.890625 55.964844 C 162.890625 57.683594 169.050781 56.996094 169.050781 61.65625 C 169 64.675781 166.539062 66.207031 163.976562 66.207031 C 161.414062 66.207031 159.722656 65.199219 158.375 63.667969 L 161.125 61.152344 Z M 161.121094 61.152344 "/>
<path style=" stroke:none;fill-rule:nonzero;fill:rgb(88.627451%,14.509804%,11.764706%);fill-opacity:1;" d="M 178.378906 66.207031 C 173.488281 66.207031 170.898438 62.898438 170.898438 59.007812 C 170.898438 55.117188 173.300781 51.808594 177.820312 51.808594 C 181.601562 51.808594 184.082031 54.324219 184.082031 57.949219 C 184.082031 58.851562 183.949219 59.695312 183.816406 60.175781 L 175.203125 60.175781 C 175.597656 61.976562 176.761719 62.449219 178.347656 62.449219 C 179.617188 62.449219 180.726562 61.945312 181.335938 61.179688 L 184.292969 63.535156 C 183.023438 65.203125 180.941406 66.207031 178.375 66.207031 Z M 175.230469 57.207031 L 180.015625 57.207031 C 179.964844 56.308594 179.273438 55.195312 177.71875 55.195312 C 176.371094 55.195312 175.550781 55.859375 175.230469 57.207031 Z M 175.230469 57.207031 "/>
<path style=" stroke:none;fill-rule:nonzero;fill:rgb(88.627451%,14.509804%,11.764706%);fill-opacity:1;" d="M 188.449219 61.152344 C 189.160156 62.078125 190.0625 62.871094 191.25 62.871094 C 192.015625 62.871094 192.386719 62.476562 192.386719 61.945312 C 192.386719 60.117188 186.230469 60.863281 186.230469 56.175781 C 186.230469 53.632812 188.367188 51.808594 191.300781 51.808594 C 193.414062 51.808594 195.421875 52.839844 196.429688 54.136719 L 193.679688 56.601562 C 193.046875 55.859375 192.253906 55.144531 191.300781 55.144531 C 190.558594 55.144531 190.21875 55.515625 190.21875 55.964844 C 190.21875 57.683594 196.378906 56.996094 196.378906 61.65625 C 196.324219 64.675781 193.867188 66.207031 191.304688 66.207031 C 188.742188 66.207031 187.050781 65.199219 185.703125 63.667969 L 188.453125 61.152344 Z M 188.449219 61.152344 "/>
</g>
</svg>
